# AST/ASF file generated using VICON BodyLanguage
# -----------------------------------------------
:version 1.10
:name VICON
:units
  mass 1.0
  length 0.45
  angle deg
:documentation
   .ast/.asf automatically generated from VICON data using
   VICON BodyBuilder and BodyLanguage model FoxedUp or BRILLIANT.MOD
:root
   order TX TY TZ RX RY RZ
   axis XYZ
   position 0 0 0  
   orientation 0 0 0 
:bonedata
  begin
     id 1 
     name lhipjoint
     direction 0.537252 -0.787203 0.302774 
     length 2.29576 
     axis 0 0 0  XYZ
  end
  begin
     id 2 
     name lfemur
     direction 0.34202 -0.939693 0  
     length 7.31114  
     axis 0 0 20  XYZ
    dof rx ry rz
    limits (-160.0 20.0)
           (-70.0 70.0)
           (-60.0 70.0)
  end
  begin
     id 3 
     name ltibia
     direction 0.34202 -0.939693 0   
     length 8.36008   
     axis 0 0 20   XYZ
    dof rx
    limits (-10.0 170.0)
  end
  begin
     id 4 
     name lfoot
     direction 0.0969116 -0.266263 0.959016   
     length 2.16704   
     axis -90 7.62852e-016 20   XYZ
    dof rx rz
    limits (-45.0 90.0)
           (-70.0 20.0)
  end
  begin
     id 5 
     name ltoes
     direction 1.53563e-011 -4.21779e-011 1   
     length 1.08338   
     axis -90 7.62852e-016 20   XYZ
    dof rx
    limits (-90.0 20.0)
  end
  begin
     id 6 
     name rhipjoint
     direction -0.588228 -0.754791 0.290308   
     length 2.39434  
     axis 0 0 0  XYZ 
  end
  begin
     id 7 
     name rfemur
     direction -0.34202 -0.939693 0   
     length 7.45207   
     axis 0 0 -20   XYZ
    dof rx ry rz
    limits (-160.0 20.0)
           (-70.0 70.0)
           (-70.0 60.0)
  end
  begin
     id 8 
     name rtibia
     direction -0.34202 -0.939693 0   
     length 8.03565   
     axis 0 0 -20   XYZ
    dof rx
    limits (-10.0 170.0)
 end
 begin
     id 9 
     name rfoot
     direction -0.107009 -0.294004 0.949795   
     length 2.11509  
     axis -90 -7.62852e-016 -20   XYZ
    dof rx rz
    limits (-45.0 90.0)
           (-20.0 70.0)
  end
  begin
     id 10 
     name rtoes
     direction -1.53533e-011 -4.22004e-011 1   
     length 1.05493   
     axis -90 -7.62852e-016 -20   XYZ
    dof rx
    limits (-90.0 20.0)
  end
  begin
     id 11 
     name lowerback
     direction -0.0115208 0.997969 -0.0626515   
     length 2.03153   
     axis 0 0 0   XYZ
    dof rx ry rz
    limits (-20.0 45.0)
           (-30.0 30.0)
           (-30.0 30.0)
  end
  begin
     id 12 
     name upperback
     direction -0.00423475 0.999974 -0.00583614   
     length 2.03619   
     axis 0 0 0   XYZ
    dof rx ry rz
    limits (-20.0 45.0)
           (-30.0 30.0)
           (-30.0 30.0)
  end
  begin
     id 13 
     name thorax
     direction 0.00289429 0.999728 0.0231573   
     length 2.03921   
     axis 0 0 0   XYZ
    dof rx ry rz
    limits (-20.0 45.0)
           (-30.0 30.0)
           (-30.0 30.0)
  end
  begin
     id 14 
     name lowerneck
     direction 0.0188995 0.987777 0.154721   
     length 1.78836   
     axis 0 0 0   XYZ
    dof rx ry rz
    limits (-20.0 45.0)
           (-30.0 30.0)
           (-30.0 30.0)
  end
  begin
     id 15 
     name upperneck
     direction -0.00612612 0.992995 -0.118   
     length 1.81789   
     axis 0 0 0   XYZ
    dof rx ry rz
    limits (-20.0 45.0)
           (-30.0 30.0)
           (-30.0 30.0)
  end
  begin
     id 16
     name head
     direction -0.00420226 0.998397 -0.0564482  
     length 1.82234  
     axis 0 0 0   XYZ
    dof rx ry rz
    limits (-20.0 45.0)
           (-30.0 30.0)
           (-30.0 30.0)
  end
  begin
     id 17 
     name lclavicle
     direction 0.916488 0.396539 0.0529676  
     length 3.51732  
     axis 0 0 0   XYZ
    dof ry rz
    limits (-20.0 10.0)
           (0.0 20.0)
  end
  begin
     id 18 
     name lhumerus
     direction 1 -4.4896e-011 8.36962e-028   
     length 5.45077   
     axis 180 -30 -90   XYZ
    dof rx ry rz
    limits (-60.0 90.0)
           (-90.0 90.0)
           (-90.0 90.0)
  end
  begin
     id 19
     name lradius
     direction 1 -4.48962e-011 3.01407e-027   
     length 3.05488   
     axis 180 -30 -90   XYZ
    dof rx
    limits (-10.0 170.0)
  end
  begin
     id 20
     name lwrist
     direction 1 -4.49002e-011 4.72961e-027   
     length 1.52744   
     axis -2.72261e-015 90 90   XYZ
    dof ry
    limits (-180.0 0.0)
 end
  begin
     id 21 
     name lhand
     direction 1 -4.4899e-011 9.45681e-027   
     length 0.638818   
     axis -6.0311e-015 90 90   XYZ
    dof rx rz
    limits (-90.0 90.0)
           (-45.0 45.0)
  end
  begin
     id 22 
     name lfingers
     direction 1 -4.48871e-011 1.88632e-026   
     length 0.515032   
     axis -1.20625e-014 90 90   XYZ
    dof rx
    limits (0.0 90.0)
  end
  begin
     id 23
     name lthumb
     direction 0.707107 -6.34964e-011 0.707107   
     length 0.739485   
     axis -90 45 6.32835e-014   XYZ
    dof rx rz
    limits (-45.0 45.0)
           (-45.0 45.0)
  end
  begin
     id 24 
     name rclavicle
     direction -0.949427 0.303202 0.0815894   
     length 3.76167  
     axis 0 0 0   XYZ 
    dof ry rz
    limits (-10.0 20.0)
           (-20.0 0.0)
  end
  begin
     id 25 
     name rhumerus
     direction -1 -4.48971e-011 -6.43969e-018  
     length 4.88702   
     axis 180 30 90   XYZ
    dof rx ry rz
    limits (-90.0 60.0)
           (-90.0 90.0)
           (-90.0 90.0)
  end
  begin
     id 26 
     name rradius
     direction -1 -4.48987e-011 5.46662e-027   
     length 3.22603   
     axis 180 30 90   XYZ
    dof rx
    limits (-10.0 170.0)
  end
  begin
     id 27 
     name rwrist
     direction -1 -4.48956e-011 4.72476e-027   
     length 1.61302   
     axis -2.72261e-015 -90 -90   XYZ
    dof ry
    limits (-180.0 0.0)
  end
  begin
     id 28
     name rhand
     direction -1 -4.4889e-011 9.43571e-027   
     length 0.716293   
     axis -6.0311e-015 -90 -90   XYZ
    dof rx rz
    limits (-90.0 90.0)
           (-45.0 45.0)
  end
  begin
     id 29
     name rfingers
     direction -1 -4.48887e-011 1.88701e-026   
     length 0.577494   
     axis -1.20625e-014 -90 -90   XYZ
    dof rx
    limits (0.0 90.0)
  end
  begin
     id 30
     name rthumb
     direction -0.707107 -6.34825e-011 0.707107   
     length 0.829169   
     axis -90 -45 -6.32835e-014   XYZ
    dof rx rz
    limits (-45.0 45.0)
           (-45.0 45.0)
  end
:hierarchy
  begin
    root lhipjoint rhipjoint lowerback
    lhipjoint lfemur
    lfemur ltibia
    ltibia lfoot
    lfoot ltoes
    rhipjoint rfemur
    rfemur rtibia
    rtibia rfoot
    rfoot rtoes
    lowerback upperback
    upperback thorax
    thorax lowerneck lclavicle rclavicle
    lowerneck upperneck
    upperneck head
    lclavicle lhumerus
    lhumerus lradius
    lradius lwrist
    lwrist lhand lthumb
    lhand lfingers
    rclavicle rhumerus
    rhumerus rradius
    rradius rwrist
    rwrist rhand rthumb
    rhand rfingers
  end

#!OML:ASF F:\VICON\USERDATA\INSTALL\rory3\rory3.ASF
:FULLY-SPECIFIED
:DEGREES
339
root 1.41876 18.5687 0.608067 149.36 87.9149 136.05
lowerback -8.83823 -0.059321 -0.167327
upperback -3.4836 0.0775399 -1.43779
thorax 1.34976 0.0806939 -1.38016
lowerneck -22.8313 -0.723701 2.41922
upperneck 15.8211 -1.94851 0.874406
head 8.66748 -0.656877 -0.360188
rclavicle 7.70291e-016 1.31198e-014
rhumerus -20.5283 -18.3332 -23.4699
rradius 98.6834
rwrist -167.552
rhand -34.3731 -1.99811
rfingers 7.12502
rthumb -7.53968 -31.8437
lclavicle 7.70291e-016 1.31198e-014
lhumerus -19.4897 26.0552 17.9939
lradius 98.076
lwrist 181.137
lhand -29.435 -40.0356
lfingers 7.12502
lthumb -2.7718 -10.0739
rfemur -9.21508 -12.776 17.4794
rtibia 1.19271e-015
rfoot -1.81821 11.9037
rtoes -10.0855
lfemur -16.892 7.37365 -19.4921
ltibia 15.7213
lfoot -11.7967 -3.1894
ltoes -25.5612
340
root 1.41495 18.5679 0.607966 149.601 87.9442 136.333
lowerback -8.89785 -0.0644887 -0.172278
upperback -3.44846 0.0703488 -1.40741
thorax 1.41872 0.0770475 -1.34681
lowerneck -22.7226 -0.708933 2.45556
upperneck 15.9141 -1.91905 0.781862
head 8.67967 -0.650315 -0.393541
rclavicle -1.26725e-015 2.10712e-014
rhumerus -20.8878 -18.3787 -24.2143
rradius 98.84
rwrist -167.002
rhand -34.0083 -1.84442
rfingers 7.12502
rthumb -7.18762 -31.7024
lclavicle -1.26725e-015 2.10712e-014
lhumerus -19.8333 26.1331 18.6543
lradius 97.9328
lwrist 180.656
lhand -29.4843 -39.4356
lfingers 7.12502
lthumb -2.81943 -9.47447
rfemur -9.18667 -12.7521 17.5003
rtibia 2.38542e-014
rfoot -1.82295 11.8875
rtoes -10.3251
lfemur -16.8641 7.35352 -19.4541
ltibia 15.7399
lfoot -11.8249 -3.14296
ltoes -25.7626
341
root 1.41177 18.5672 0.607909 149.037 87.9948 135.808
lowerback -8.95259 -0.0698055 -0.187785
upperback -3.43396 0.0639836 -1.36873
thorax 1.46369 0.07407 -1.29886
lowerneck -22.6419 -0.694995 2.40101
upperneck 16.0861 -1.88139 0.775543
head 8.72579 -0.634303 -0.382122
rclavicle -2.67117e-015 1.03368e-014
rhumerus -21.2204 -18.2843 -24.9824
rradius 98.9283
rwrist -166.255
rhand -33.5924 -1.88338
rfingers 7.12502
rthumb -6.78609 -31.7546
lclavicle -2.67117e-015 1.03368e-014
lhumerus -20.2583 26.2514 19.3218
lradius 97.7174
lwrist 180.202
lhand -29.7688 -38.8762
lfingers 7.12502
lthumb -3.09415 -8.91894
rfemur -9.15791 -12.6968 17.5034
rtibia 2.46493e-014
rfoot -1.79862 11.8928
rtoes -10.2357
lfemur -16.8357 7.38548 -19.4332
ltibia 15.754
lfoot -11.828 -3.12215
ltoes -25.7637
342
root 1.41017 18.5678 0.608049 149.404 88.1078 136.239
lowerback -8.96017 -0.0507368 -0.143627
upperback -3.43677 0.084128 -1.32151
thorax 1.46536 0.0839001 -1.27293
lowerneck -22.5098 -0.694099 2.32209
upperneck 16.2323 -1.86368 0.828554
head 8.75511 -0.622953 -0.348767
rclavicle 3.40419e-015 -6.16232e-015
rhumerus -21.5688 -18.0924 -25.7957
rradius 98.8812
rwrist -165.552
rhand -33.027 -1.72656
rfingers 7.12502
rthumb -6.24027 -31.6146
lclavicle 3.40419e-015 -6.16232e-015
lhumerus -20.6952 26.2231 20.0539
lradius 97.4748
lwrist 179.989
lhand -29.8349 -38.6478
lfingers 7.12502
lthumb -3.15797 -8.69145
rfemur -9.10436 -12.6005 17.5755
rtibia -5.56597e-015
rfoot -1.78604 11.9008
rtoes -10.1859
lfemur -16.7747 7.37807 -19.3249
ltibia 15.7957
lfoot -11.8682 -3.02671
ltoes -25.7045
343
root 1.40814 18.5667 0.606507 148.801 88.1877 135.668
lowerback -8.98339 -0.0278984 -0.115645
upperback -3.43387 0.111548 -1.29778
thorax 1.48173 0.0974717 -1.26143
lowerneck -22.4694 -0.698315 2.24219
upperneck 16.4041 -1.86194 0.908934
head 8.80918 -0.615158 -0.308567
rclavicle -5.59082e-016 8.54774e-015
rhumerus -21.8257 -18.0443 -26.6621
rradius 98.5886
rwrist -165.202
rhand -32.7157 -1.86775
rfingers 7.12502
rthumb -5.93975 -31.7645
lclavicle -5.59082e-016 8.54774e-015
lhumerus -21.0996 25.9753 20.8515
lradius 97.161
lwrist 179.915
lhand -29.7859 -38.6338
lfingers 7.12502
lthumb -3.11068 -8.67677
rfemur -9.09342 -12.5189 17.6013
rtibia -1.19271e-014
rfoot -1.79281 11.8551
rtoes -10.2154
lfemur -16.7573 7.4454 -19.2855
ltibia 15.8309
lfoot -11.8768 -3.05994
ltoes -25.4073
344
root 1.40697 18.5671 0.604399 149.167 88.2418 136.059
lowerback -9.04684 -0.00670086 -0.0537361
upperback -3.39913 0.134289 -1.29387
thorax 1.5531 0.108353 -1.28995
lowerneck -22.5214 -0.711983 2.26543
upperneck 16.6187 -1.89048 0.896114
head 8.8917 -0.624387 -0.321782
rclavicle -2.43511e-015 -1.78906e-015
rhumerus -22.0487 -18.1004 -27.6336
rradius 98.1441
rwrist -164.798
rhand -32.4966 -2.1988
rfingers 7.12502
rthumb -5.72817 -32.1014
lclavicle -2.43511e-015 -1.78906e-015
lhumerus -21.4336 25.633 21.6641
lradius 96.8644
lwrist 179.657
lhand -29.7393 -38.5838
lfingers 7.12502
lthumb -3.0657 -8.62607
rfemur -9.08415 -12.4771 17.6348
rtibia -4.77083e-015
rfoot -1.8248 11.8621
rtoes -10.2035
lfemur -16.7453 7.4865 -19.2421
ltibia 15.8536
lfoot -11.8969 -3.08346
ltoes -25.2572
345
root 1.40651 18.5673 0.60284 147.651 88.2344 134.575
lowerback -9.11335 -0.00928068 -0.0804691
upperback -3.36772 0.134202 -1.31711
thorax 1.62219 0.108424 -1.29897
lowerneck -22.514 -0.727155 2.32907
upperneck 16.8246 -1.9304 0.876658
head 8.96065 -0.637186 -0.345112
rclavicle 1.74558e-015 1.19271e-015
rhumerus -22.3076 -18.0331 -28.6011
rradius 97.7263
rwrist -164.335
rhand -32.3343 -2.31785
rfingers 7.12502
rthumb -5.57147 -32.2246
lclavicle 1.74558e-015 1.19271e-015
lhumerus -21.8482 25.2692 22.4353
lradius 96.6534
lwrist 179.272
lhand -29.7799 -38.4224
lfingers 7.12502
lthumb -3.10491 -8.46522
rfemur -9.04803 -12.4617 17.571
rtibia 2.14687e-014
rfoot -1.79727 11.8678
rtoes -10.1432
lfemur -16.7044 7.55537 -19.2999
ltibia 15.8522
lfoot -11.8895 -3.11788
ltoes -25.4615
346
root 1.4059 18.5668 0.602573 145.654 88.2723 132.624
lowerback -9.14585 0.0033265 -0.10497
upperback -3.33087 0.153124 -1.33219
thorax 1.67859 0.117711 -1.29882
lowerneck -22.5749 -0.707887 2.40809
upperneck 17.099 -1.929 0.8453
head 9.06542 -0.629345 -0.369973
rclavicle -3.03147e-015 -8.34896e-015
rhumerus -22.6562 -17.9042 -29.3872
rradius 97.403
rwrist -164.095
rhand -32.1461 -2.42038
rfingers 7.12502
rthumb -5.38976 -32.3318
lclavicle -3.03147e-015 -8.34896e-015
lhumerus -22.2298 24.8463 23.2044
lradius 96.3839
lwrist 178.984
lhand -29.5431 -38.5353
lfingers 7.12502
lthumb -2.87624 -8.57495
rfemur -8.99014 -12.3968 17.5282
rtibia 2.34566e-014
rfoot -1.78248 11.8384
rtoes -10.1857
lfemur -16.6427 7.5828 -19.3183
ltibia 15.8471
lfoot -11.901 -3.09763
ltoes -25.6275
347
root 1.40482 18.5654 0.602213 145.452 88.2627 132.452
lowerback -9.22321 -0.0165907 -0.116089
upperback -3.26604 0.127343 -1.33266
thorax 1.78764 0.10456 -1.29581
lowerneck -22.7039 -0.668689 2.51846
upperneck 17.365 -1.89362 0.724965
head 9.17816 -0.614003 -0.426312
rclavicle -2.91965e-015 -1.39149e-015
rhumerus -22.8361 -17.9467 -30.1856
rradius 97.0005
rwrist -163.653
rhand -32.232 -2.65355
rfingers 7.12502
rthumb -5.47278 -32.5629
lclavicle -2.91965e-015 -1.39149e-015
lhumerus -22.5803 24.5311 23.9998
lradius 96.1968
lwrist 178.702
lhand -29.5772 -38.817
lfingers 7.12502
lthumb -2.90916 -8.8571
rfemur -8.96124 -12.3997 17.5149
rtibia 1.27222e-014
rfoot -1.78254 11.8214
rtoes -10.02
lfemur -16.5951 7.61611 -19.3217
ltibia 15.8163
lfoot -11.8823 -3.17572
ltoes -25.5833
348
root 1.40303 18.5656 0.600074 143.634 88.2663 130.649
lowerback -9.29507 -0.0206147 -0.155957
upperback -3.2328 0.125797 -1.32704
thorax 1.86149 0.103903 -1.2678
lowerneck -22.692 -0.661122 2.54108
upperneck 17.5245 -1.88304 0.683324
head 9.23116 -0.609392 -0.443564
rclavicle 2.23633e-015 8.74653e-015
rhumerus -23.0089 -17.9178 -31.0239
rradius 96.5787
rwrist -163.013
rhand -32.1135 -3.05084
rfingers 7.12502
rthumb -5.35834 -32.9631
lclavicle 2.23633e-015 8.74653e-015
lhumerus -22.9903 24.1634 24.8231
lradius 96.0032
lwrist 178.429
lhand -30.179 -38.6591
lfingers 7.12502
lthumb -3.49032 -8.7079
rfemur -8.95967 -12.3664 17.459
rtibia 1.98785e-015
rfoot -1.79977 11.8283
rtoes -10.2546
lfemur -16.5712 7.56439 -19.3595
ltibia 15.8019
lfoot -11.8645 -3.10399
ltoes -25.3839
349
root 1.40131 18.5665 0.597136 140.317 88.2845 127.389
lowerback -9.29879 0.00596806 -0.21724
upperback -3.21911 0.166109 -1.32011
thorax 1.87842 0.124057 -1.22183
lowerneck -22.5326 -0.697556 2.45256
upperneck 17.5634 -1.91573 0.762412
head 9.21851 -0.620982 -0.405728
rclavicle -7.0817e-016 1.25234e-014
rhumerus -23.2674 -17.7821 -31.7147
rradius 96.3062
rwrist -162.358
rhand -32.1171 -3.20686
rfingers 7.12502
rthumb -5.36183 -33.119
lclavicle -7.0817e-016 1.25234e-014
lhumerus -23.4708 23.6171 25.6545
lradius 95.9069
lwrist 178.366
lhand -30.2392 -38.7117
lfingers 7.12502
lthumb -3.54845 -8.76147
rfemur -8.90879 -12.294 17.3592
rtibia 1.19271e-014
rfoot -1.83704 11.8631
rtoes -10.4248
lfemur -16.4989 7.62671 -19.4375
ltibia 15.7979
lfoot -11.9044 -3.06782
ltoes -25.6774
350
root 1.39833 18.5663 0.595464 138.151 88.3472 125.239
lowerback -9.3305 0.030518 -0.230301
upperback -3.19769 0.199041 -1.29669
thorax 1.91858 0.140355 -1.18672
lowerneck -22.4635 -0.69495 2.40524
upperneck 17.5918 -1.91399 0.851698
head 9.21807 -0.612364 -0.366595
rclavicle 2.168e-015 6.16232e-015
rhumerus -23.4614 -17.6328 -32.3656
rradius 96.1585
rwrist -161.818
rhand -32.3417 -3.01737
rfingers 7.12502
rthumb -5.57868 -32.9239
lclavicle 2.168e-015 6.16232e-015
lhumerus -23.8966 23.181 26.4394
lradius 95.7795
lwrist 178.16
lhand -29.632 -38.7669
lfingers 7.12502
lthumb -2.96203 -8.80774
rfemur -8.9187 -12.2045 17.3467
rtibia 1.55052e-014
rfoot -1.81048 11.8317
rtoes -10.0087
lfemur -16.4833 7.76936 -19.4602
ltibia 15.8006
lfoot -11.9011 -3.10208
ltoes -26.1349
351
root 1.39547 18.5663 0.591325 137.958 88.3864 125.027
lowerback -9.37833 0.0464851 -0.167189
upperback -3.18981 0.214016 -1.26762
thorax 1.95343 0.1477 -1.19055
lowerneck -22.3689 -0.712985 2.30495
upperneck 17.6071 -1.92691 0.961762
head 9.2092 -0.612224 -0.31358
rclavicle -2.17421e-015 5.96354e-016
rhumerus -23.6266 -17.5035 -32.9555
rradius 95.9955
rwrist -161.58
rhand -32.3507 -2.89767
rfingers 7.12502
rthumb -5.58736 -32.804
lclavicle -2.17421e-015 5.96354e-016
lhumerus -24.2537 22.8984 27.1773
lradius 95.5463
lwrist 178.116
lhand -29.0233 -38.5821
lfingers 7.12502
lthumb -2.37418 -8.61555
rfemur -8.95924 -12.1733 17.3648
rtibia -5.96354e-015
rfoot -1.8071 11.8291
rtoes -10.1447
lfemur -16.5162 7.7781 -19.4467
ltibia 15.8102
lfoot -11.8925 -3.1013
ltoes -26.029
